<svg width="20" height="26" viewBox="0 0 20 26" fill="none" xmlns="http://www.w3.org/2000/svg">
<g filter="url(#filter0_d_440_2765)">
<path d="M4 7.27915C4 6.13145 4 5.5576 4.218 5.11901C4.40974 4.7334 4.71569 4.41988 5.092 4.22339C5.52 4 6.08 4 7.2 4H12.8C13.92 4 14.48 4 14.908 4.22339C15.2843 4.41988 15.5903 4.7334 15.782 5.11901C16 5.5576 16 6.13145 16 7.27915V20.9132C16 21.4113 16 21.6603 15.899 21.7966C15.8554 21.8558 15.7997 21.9047 15.7358 21.9397C15.6719 21.9748 15.6013 21.9951 15.529 21.9995C15.362 22.0097 15.16 21.8714 14.756 21.5957L10 18.3463L5.244 21.5947C4.84 21.8714 4.638 22.0097 4.47 21.9995C4.39784 21.995 4.32748 21.9745 4.26377 21.9395C4.20007 21.9045 4.14453 21.8557 4.101 21.7966C4 21.6603 4 21.4113 4 20.9132V7.27915Z" fill="#ADADBD" fill-opacity="0.9" shape-rendering="crispEdges"/>
</g>
<defs>
<filter id="filter0_d_440_2765" x="0" y="0" width="20" height="26" filterUnits="userSpaceOnUse" color-interpolation-filters="sRGB">
<feFlood flood-opacity="0" result="BackgroundImageFix"/>
<feColorMatrix in="SourceAlpha" type="matrix" values="0 0 0 0 0 0 0 0 0 0 0 0 0 0 0 0 0 0 127 0" result="hardAlpha"/>
<feOffset/>
<feGaussianBlur stdDeviation="2"/>
<feComposite in2="hardAlpha" operator="out"/>
<feColorMatrix type="matrix" values="0 0 0 0 0 0 0 0 0 0 0 0 0 0 0 0 0 0 0.25 0"/>
<feBlend mode="normal" in2="BackgroundImageFix" result="effect1_dropShadow_440_2765"/>
<feBlend mode="normal" in="SourceGraphic" in2="effect1_dropShadow_440_2765" result="shape"/>
</filter>
</defs>
</svg>
